# xmcd CD database file
#
# Track frame offsets:
#	150
#	17987
#	36768
#	60727
#	83433
#	104954
#	121243
#	148275
#	170564
#	196324
#	214544
#	232220
#
# Disc length: 3396 seconds
#
# Revision: 0
# Processed by: cddbd v1.5.2PL0 Copyright (c) Steve Scherf et al.
# Submitted via: CDex 1.70beta2
#
DISCID=b00d420c
DTITLE=Various Artist - Journey To Romance - Passionate Saxophone and Lush Strings
DYEAR=1900
DGENRE=Jazz
TTITLE0=Moonlight In Vermont
TTITLE1=I Left My Heart In San Francisco
TTITLE2=Witchita Lineman
TTITLE3=Georgia On My Mind
TTITLE4=Shenandoah  My Old Kentucky Home
TTITLE5=Do You Know What It Means To Miss New Orleans
TTITLE6=New York State Of Mind
TTITLE7=Old Cape Cod
TTITLE8=America
TTITLE9=Tennessee Waltz
TTITLE10=Do You Know The Way To San Jonse
TTITLE11=America The Beautiful
EXTD=
EXTT0=
EXTT1=
EXTT2=
EXTT3=
EXTT4=
EXTT5=
EXTT6=
EXTT7=
EXTT8=
EXTT9=
EXTT10=
EXTT11=
PLAYORDER=
